<svg id="Camada_1" data-name="Camada 1" xmlns="http://www.w3.org/2000/svg" viewBox="0 0 48 48"><title>buscar</title><g id="Camada_1-2" data-name="Camada_1"><path d="M28.25,22c0-8-12.23-8.09-12.24,0S28.25,30,28.25,22ZM22.5,13.71c-11,0-11.77,15-1.76,16.52a8,8,0,0,0,4.61-.59c1-.43.92-.81,1.62-.12,1.61,1.59,2.76,2.83,4.15,4.11,2.1,1.89,4.42-.68,2.41-2.82-1.38-1.48-3.18-3.12-4.19-4.24,3-5.46-.18-12.27-6.38-12.83l-.46,0Z" transform="translate(0 0)" fill="#131f30" fill-rule="evenodd"/><rect width="48" height="48" fill="none"/></g></svg>